<svg xmlns="http://www.w3.org/2000/svg" xmlns:xlink="http://www.w3.org/1999/xlink" id="Layer_1" viewBox="0 0 1920 1920">
  <defs>
    <style>
      .st0 {
        stroke-linecap: round;
        stroke-linejoin: round;
        stroke-width: 4.3px;
      }

      .st0, .st1 {
        fill: none;
        stroke: #2e2436;
      }

      .st1 {
        stroke-miterlimit: 10;
        stroke-width: 5.5px;
      }
    </style>
  </defs>
  <path d="M1297.3 698.4c2.1 0 6.1.9 8.7 7 14 32.8 22.1 67.4 24 102.9 1.4 25.4-.8 47-6.6 66.1-7.6 24.9-22.7 48.1-42.5 65.2-.9.8-2.1 1.2-3.3 1.2s-.8 0-1.2-.1c-1.6-.4-2.9-1.5-3.5-3-19-48.5-33.8-121 3.8-191.1 1.6-3 3.2-5.8 4.8-8.5 5.7-9.9 10.3-17.9 11-28.5-.9-1.1-1.6-2.6-1.7-4.2-.3-3.4 1.9-6.3 5.2-6.9.4 0 .9-.1 1.3-.1Zm0 5h-.4c-1.8.3-.9 3.3.2 3.3s.4-.1.6-.4c.2 16.9-8.5 27.7-16.5 42.6-31.4 58.4-27.8 125.2-3.6 186.9 19.2-16.6 33.6-38.6 41-62.8 6.3-20.7 7.6-42.7 6.4-64.4-1.9-34.8-9.9-69.2-23.6-101.2-.8-1.8-2.1-4-4-4" class="st1"/>
  <path d="M1278.9 933.4c16.3-14.1 18-37.8 18.6-59 1.3-53.2-1.7-117.6-.4-170.9" class="st0"/>
  <path d="M915.6 1406.9c1.6 0 3.1.8 4.1 2.1a669 669 0 0 1 82.7 155.8 4.97 4.97 0 0 1-4.7 6.7c-1.2 0-1.6-.2-2.4-.6-33.2-17.5-58.3-49.3-77-97.3-.8-2-1.6-4.1-2.4-6.1-7.5-18.7-16.1-40-4.5-58.3.9-1.4 2.4-2.3 4.1-2.4h.2Zm0 5c-11.3 18-.3 40.1 7.4 60 15.2 39.1 37.5 75 74.7 94.7-20.4-54.9-48.1-107-82.1-154.6" class="st1"/>
  <path d="M627.6 835.8c-1.9 15.9-6.6 31.4-13.9 45.6m41.9-45.6c.5 12.7-2.2 27.5-7.3 39.2m32.3-45.4c0 15.8-1 31.7-3.3 47.4m33.9-53.5c3.1 12.7 4.6 25.9 4.4 39m17.2-50.4c7.8 9.6 16.5 22.7 22.4 33.6m-6.5-45.3c12.7 6.6 30.9 14.2 43.6 20.7M769 782.2c15.3 4.3 30.7 8.5 46 12.8m-33.7-30.7c15.4 3.3 30.8 3.3 43.4 3.3m-35.9-17.3c-11.1 26.8-45.1 57.2-71.7 68.6-26.7 11.4-56.2 14.7-85.2 14.5-10.1 0-20.6-.5-30 3.4m442.2 466.8c5-4.3 9.1-9.6 12.1-15.5 5.2-10.2-3-22.4-14.3-20.8-54.4 7.2-101.1 60.8-96 116.3 3.7 40.3 29.4 74.7 45.1 112.1 12 28.6 18.3 59.6 18.3 90.6s-.3 12-3.7 16.7c-5.3 7.6-15.9 8.6-25.2 9.6-69.4 7.5-131 51.3-173.2 106.8-42.2 55.6-67.2 122.2-87.2 189m-232-847.7c4.9 67 24.3 128.9 56.5 187.8 10.4 19.1 22.3 37.7 29.3 58.3 11.2 32.7 11.2 71.7 35.7 96.1 18.9 18.8 47.4 23.4 74.1 25 130.8 7.6 262.8-37.1 360.6-124.3m166.7-319.2c88.2-45 156.1-139.9 145.3-238.2-2.6-23.5-10.1-47.7-27.3-64-15.1-14.3-36-21-56.6-23.6-47.2-6-102.1 13-119.1 57.5-4.9 13-6.3 27.2-12.3 39.7-16.3 34.5-69.4 43.7-96.4 16.6-8-8-13.8-19.5-11-30.4 3.4-13.3 23.6-21.7 31-5.5 1.8 3.9 2.2 8.3 1.5 12.5-6.1 38.1-55 50.3-90.3 38.5-17.4-5.9-34.1-16.3-43.2-32.3s-9-38 3.6-51.4c5.7-6.1 13.6-10.2 18.6-16.8 8.1-10.8 7.2-25.8 4-39-7.1-29-28.9-56.6-55.3-67.5-15.9-6.6-28.6-18.9-36.5-34.2-.9-1.8-2-3.5-3.3-5-8.6-10.1-24.9-12.6-36.1-5.6-4.4 10.4-8.9 22.3-1.6 32.2 4.8 6.5 13.1 9.2 21 8 13.9-2.1 23.3-13.9 28.1-26.4 9.7-25.6 2.7-55.8-14.1-77.5s-42.1-35.6-68.6-42.8c-49.7-13.6-114.6 3.7-128.4 53.3-4.4 15.6-2.2 32.4 4.8 47 9.8 20.5 40.4 8.1 33.4-13.5-3-9.1-7.5-17.7-13.8-25-16.9-19.7-48.7-27.4-69.7-12.3-10.6 7.5-17.3 19.5-28 26.9-20.6 14.2-50.4 6.8-68.9-10.1s-28.3-41-37.6-64.3c-5.2-13-10.5-26.9-7.6-40.6s17.7-25.7 30.6-20.3c1.8 18.6-18.8 33.9-37.2 31.1s-32.5-19.2-37.8-37.1c-14.8-50.2 30.8-100.8 80.9-116 25.2-7.7 53.4-10.1 73.5-27.2 2.8 19.4-13.1 26.7-30.7 35.2-54.8 26.4-75.8 92.3-90.1 151.4-23.6 97.6-44.1 201.8-11.6 296.9 7.7 22.5 18.3 44.1 22.9 67.4 15.6 77.7-35.8 150.8-62.1 225.6-5.7 16.3-9.6 36.4 1.8 49.3 9.1 10.3 24.4 11.8 38.2 12.6l79.6 4.5c23.2 1.3 55.4-5.4 54.6-28.7" class="st0"/>
  <path d="M1494.3 653.7c.5 0 1.1 0 1.6.3 1.8.6 3.2 2.2 3.4 4.1 10.7 88.7-4.8 162.2-46.1 218.5-42.4 57.8-114.6 93.7-188.5 93.7s-12-.2-17.9-.7c-2.1-.2-3.9-1.6-4.4-3.6-.6-2 .2-4.2 1.9-5.4a628 628 0 0 0 183.3-204.8c4-7.2 8-14.7 11.8-21.9 14.5-27.3 29.5-55.6 51.3-78.5 1-1 2.3-1.6 3.6-1.6Zm0 5c-27.1 28.5-43.3 65.1-62.4 99.4a631.5 631.5 0 0 1-184.7 206.5c5.8.5 11.7.7 17.5.7 71.2 0 142.3-34.3 184.4-91.7 45.5-62 54.4-138.6 45.1-214.9" class="st1"/>
  <path d="M965.2 181.4c0 11.5-12.7 20.3-24.1 18.8s-20.7-10.8-25.5-21.2c-1.3-2.9-2.4-5.9-2.4-9.1 0-6.1 4-11.6 8.7-15.5 10.1-8.2 25.3-10.5 36.3-3.6s15 23.8 6.6 33.8m303.5 324c-74.3-128.3-171.1-102.3-256.6-223.4m234 680c21.5-13.9 43-27.8 64.6-41.6 38-24.5 76.4-49.3 107.2-82.4 44.6-47.9 74.7-116.6 76.8-182" class="st0"/>
  <path d="M934 11.6c14.2 0 29.3 8.4 44.9 25 5.6 6 11.9 13.1 14.8 22.2 6.1 19.1-4.4 38-14.7 54.3-12.7 20-28.5 45-58.5 45h-2.7c-29.6-1.4-45.7-56.8-52.6-89.7-2-9.7-3.7-23.6 5-32.9 5.8-6.2 14-8 21.3-9.5 3-.6 5.9-1.2 8.6-2.1 3.5-1.2 6.9-2.9 10.5-4.8 4.9-2.6 9.9-5.2 15.7-6.5 2.5-.6 5.1-.8 7.7-.8Zm0 5c-2.2 0-4.4.2-6.6.7-9.1 2-16.8 8.2-25.7 11.1-9.5 3.1-20.9 2.9-27.8 10.2-6.8 7.3-5.8 18.7-3.7 28.5 5.5 26 20.9 84.4 48 85.7h2.4c27.1 0 41.6-22.6 54.3-42.7 9.6-15.1 19.6-33 14.1-50-2.5-7.8-8.1-14.3-13.7-20.3-11.1-11.8-25.6-23.4-41.2-23.4" class="st1"/>
  <path d="M1027.9 70.4c8.6 0 15.9 2.9 21.1 8.5 6.9 7.5 8.1 17.1 9.2 26.5.4 3.6.8 7 1.6 10.2.8 3.8 2.2 7.4 3.6 11.3 1.9 5.3 3.9 10.7 4.7 16.6 2.4 17.8-7.3 36.5-24 46.7-9.5 5.8-21 8.8-33.3 8.8s-12.4-.8-18.6-2.3l-5.6-1.5c-5.1-1.4-9.9-2.7-14.5-2.7s-2.8.1-4.1.4c-.3 0-.7.1-1 .1-1.5 0-3-.7-4-2a4.9 4.9 0 0 1-.5-5.3c5.1-9.9-2-25.2-11.6-32.3a5 5 0 0 1-1.9-5.2c7-29 25.8-54.4 51.4-69.6 8.9-5.3 19-8.3 27.6-8.3Zm0 5c-8.5 0-17.7 3.2-25.1 7.6a108.2 108.2 0 0 0-49.1 66.5c11.3 8.3 19.5 26.2 13.1 38.6 1.7-.4 3.4-.5 5.2-.5 7.1 0 14.3 2.7 21.3 4.4q8.55 2.1 17.4 2.1c10.8 0 21.5-2.5 30.7-8.1 14.2-8.6 23.8-25.3 21.6-41.8-1.3-9.5-6.1-18.2-8.2-27.5-2.7-11.8-1.3-25.5-9.6-34.4-4.6-4.9-10.8-6.9-17.4-6.9" class="st1"/>
  <path d="M969.3 177.8c.4 0 .7 0 1.1.1 21.7 4.9 42.5 13.1 61.6 24.5 4.6 2.7 9.7 6 13.6 11 11.3 14.7 4.9 36.2-7.2 49.7-8 9-17.5 15.5-28.3 22.6-7.9 5.2-15.2 9.6-24 10.7-1.3.2-2.6.2-4 .2-12.8 0-26-7.6-36.2-20.9-16.9-21.9-22.6-52.1-14.7-78.6.6-2.2 2.6-3.6 4.8-3.6h.7c.7.1 1.4.2 2.2.2 9 0 19.9-7.2 26.7-14.4 1-1 2.3-1.6 3.6-1.6Zm0 5c-7.4 7.8-19.5 16-30.4 16s-2 0-2.9-.2c-7.4 25-2.1 53.5 13.9 74.1 7.9 10.2 19.6 19 32.3 19s2.2 0 3.4-.2c8-1 15.1-5.5 21.8-9.9 9.8-6.4 19.5-13 27.3-21.7 10.6-11.9 16.6-30.7 6.9-43.4-3.2-4.1-7.6-7.1-12.1-9.8-18.6-11.1-39-19.2-60.1-24M842.1 80.1c2.1 0 4.2.2 6.2.6 10 2.1 17.5 8.9 24.9 16.3l.2.2c38.2 38.2 53.2 62.8 47.3 77.2-3.2 7.6-11.6 11.5-25.1 11.5s-4 0-6.1-.2h-2.4c-10.7 0-20.8 5-31.6 10.3-9.9 4.9-20.1 9.9-31.4 11.3-1.6.2-3.1.3-4.6.3-4.6 0-8.5-.9-11.8-2.8-7.8-4.4-11-13.3-13.1-19.2l-7.8-21.7-1.6-4.5c-2.7-7.4-5.7-15.8-4.9-24.8 1.3-16.1 13.8-27.9 27-38.3 10.6-8.3 22.1-16 34.9-16Zm0 5c-11.5 0-22.4 7.5-31.8 14.9-11.6 9.1-23.9 20.1-25.1 34.7-.6 7.8 2 15.4 4.7 22.7 3.1 8.7 6.3 17.5 9.4 26.2 2.3 6.3 5 13.2 10.8 16.5 2.8 1.6 6.1 2.2 9.4 2.2s2.7 0 4-.2c22.4-2.7 41.4-21.6 63.6-21.6h2.7c2.1.1 4 .2 5.8.2 54.6 0-10.8-65.2-25.9-80.3-6.4-6.4-13.4-13-22.3-14.9-1.7-.4-3.5-.5-5.2-.5" class="st1"/>
  <path d="M907.6 172.4c1.6 0 3.2 0 4.7.2 1.2.1 2.3.6 3.1 1.5 3.6 3.6 7.8 8.2 11.9 12.7 4 4.4 8.1 8.9 11.5 12.3 1.1 1.1 1.6 2.7 1.4 4.2-1.4 10.3-.3 20.7.8 31.8.6 5.4 1.1 11 1.4 16.6.7 15.4-1.5 36.4-16.2 49.5-7.6 6.8-17.7 10.4-29.1 10.4s-21.3-3.1-30.3-8.8c-18.5-11.6-29.4-31-36.8-46.5-2.9-6-5.9-13.1-5.9-20.7.2-17.6 16.7-30.1 25.6-36.8 17.7-13.3 36.7-26.3 58-26.3Zm0 5c-20.2 0-38.6 12.9-55 25.3-11.2 8.4-23.4 18.8-23.6 32.8 0 6.5 2.6 12.7 5.4 18.5 8.2 17.2 18.8 34.3 35 44.5 8.2 5.1 18 8 27.7 8s18.7-2.8 25.8-9.1c12.3-10.9 15.3-29.1 14.5-45.5-.7-16.5-4.4-32.9-2.1-49.3-7.1-7.1-16.3-17.9-23.4-25-1.4-.1-2.8-.2-4.3-.2" class="st1"/>
  <path d="M1270.4 509.2c24.6-40.5 48.2-79.2 40.6-126m-40.6 126c-4.4-82.3-43.3-154-105.1-208.6m-12.2 148.8c-21.1 41.4-85.6 54.5-131.4 46.9m241.5 3.2c4.9 7 4.2 16.9.1 24.5s-10.9 13.2-17.9 18.2c-28.3 20.1-62.3 32-96.9 34.1m187 282.8c10.6-17.4 19.7-54.5 20.4-74.9 2.9-83.2-26.3-163.6-66.9-235.1-7.4-13.1-18.4-41.4-31-49.8-8.3-5.5-34.2-5.4-47-11.9-34-17.1-61.2-45.4-96.6-60.3-20.3-8.6-42.3-12.3-64.1-16" class="st0"/>
  <path d="M1344.4 265.6c.6 0 1.1 0 1.6.3 1.5.5 2.7 1.8 3.2 3.3l6 20 3.6 11.9c4.6 15.5 9.4 31.5 10.2 48.3 1.9 40.8-22.7 81.3-59.8 98.7-.7.3-1.4.5-2.1.5s-1.4-.2-2.1-.5c-8.8-4-38.1-19-44.2-43.1-4.6-18-2.4-38.4 6-57.2 12.9-28.8 36.6-54.6 74.7-81.3.9-.6 1.9-.9 2.9-.9Zm0 5c-29.6 20.7-58.3 46.3-73 79.2-7.5 16.8-10.3 36.1-5.7 54 4.5 17.9 24.6 32.1 41.4 39.7 35.2-16.5 58.7-55.2 56.9-93.9-.7-16.1-5.4-31.7-10-47.1-3.2-10.6-6.4-21.2-9.5-31.9M1140.1 216Zm0-10c.9 0 1.9.3 2.7.8 26.6 16.8 45.9 34.3 58.9 53.6 16.5 24.5 23.1 52.9 17.8 77.8-.8 4-2.2 8.6-5.9 11.9-8.2 7.3-19.7 11.3-32.6 11.3s-22.2-3.1-30.6-8.9c-16.3-11.1-28.1-29.9-32.2-51.6-4.9-25.7.9-52.7 15.9-74.1 2.6-3.7 3.2-9.8 1.4-13.6-1-2-.5-4.4 1.2-5.9.9-.8 2.1-1.3 3.3-1.3Zm0 5c2.6 5.5 1.7 13.6-1.9 18.6a93.7 93.7 0 0 0-15.1 70.3c3.6 19.2 13.9 37.5 30.1 48.4 7.7 5.2 17.8 8 27.8 8s21.7-3.2 29.3-10c2.6-2.3 3.6-5.8 4.3-9.2 5.3-25.5-2.5-52.4-17.1-74s-35.4-38.2-57.4-52.1M985.3 322.9c.4 0 .8 0 1.1.1 22.2 5.2 49.8 11.6 71.7 27.5 22.2 16.2 37.3 42.1 40.5 69.4.3 2.5-1.3 4.7-3.6 5.4-7.2 2-15 6-23.3 10.3-13.3 6.8-27 13.9-40.4 13.9s-3.1-.1-4.6-.3c-19.2-2.5-36.3-18.1-43.7-39.7-6.4-18.9-5.3-39.2-3.1-58.3.4-3.6.3-7.1.2-10.8-.2-4.2-.3-8.5.4-13.2.2-1.4 1-2.6 2.1-3.4.8-.6 1.8-.9 2.8-.9Zm0 5.1c-1.2 8.3.5 15.5-.5 23.9-2.2 18.8-3.3 38.2 2.8 56.1s20.8 33.9 39.6 36.4c1.3.2 2.6.3 4 .3 20.2 0 43.2-18.6 62.4-24-3-26-17.3-50.5-38.4-65.9-20.3-14.8-45.4-21-69.8-26.7M949.2 454.2c1.8 0 3.4.6 4.7 1.2 11.4 5.3 24.2 5.4 37.8 5.5 4.9 0 9.9 0 14.9.4 20.5 1.3 45.4 14.2 51.8 33.6.4 1.2.3 2.6-.3 3.8-9.8 20-29.8 33.5-49.8 33.5s-15.5-2.1-22.4-6.2c-17.7-10.6-31.1-30.3-40.9-60.1-1-.8-1.8-1.9-2.2-3.3-.8-2.7.1-5.6 2.4-7.1 1.2-.8 2.6-1.2 4-1.2Zm0 5c-.4 0-.9.1-1.2.4-.9.6-.3 2.4.6 2.4s.3 0 .5-.2c7.3 23 18.9 47.5 39.5 59.8 6.3 3.8 13.1 5.5 19.8 5.5 18.3 0 36.5-12.6 45.2-30.7-5.7-17.6-28.9-29-47.3-30.2-18.4-1.1-37.8 1.4-54.5-6.3-.8-.4-1.7-.8-2.6-.8M1154.9 548.9h4.6c6.3.2 13 .9 18.5 4.8 6.4 4.5 10 14.1 5.3 21.3-1.9 2.9-3.8 6.1-5.6 9.1-7.8 13.2-15.8 26.9-30.7 26.9s-4.9-.4-7.5-1.1c-19.7-5.8-33.2-23.9-36.2-48.3-.3-2.4 1.2-4.7 3.5-5.4 15.6-4.9 31.7-7.4 48.1-7.4Zm0 5c-15.8 0-31.5 2.4-46.6 7.1 2.5 20.2 13.1 38.3 32.6 44 2.2.6 4.2.9 6.1.9 15.1 0 22.3-18.7 32.1-33.8 3-4.6.5-11.2-4-14.4s-10.3-3.7-15.8-3.9h-4.5M789.1 1473.7Zm0-10c.8 0 1.6.2 2.3.6l81.9 43 64.6 33.9c17.3 9.1 35.2 18.4 51 30.8 14.9 11.6 21.4 24 18.9 36-.3 1.5-1.2 2.7-2.5 3.4-.7.4-1.5.6-2.3.6s-1.3-.1-1.9-.4c-18.1-7.3-36.8-12.2-55-16.9-23.7-6.1-48.1-12.5-71.3-24.4-48.1-24.6-80.2-60.2-90.4-100.3-.5-1.9.2-3.9 1.7-5.2.9-.7 2-1.1 3.1-1.1Zm0 5c11.2 44 47.5 76.4 87.9 97.1 40.3 20.7 83.9 24 125.9 41.1 2.6-12.2-7.2-23.3-17-31-15.5-12-32.9-21.2-50.3-30.3-48.8-25.6-97.6-51.2-146.5-76.9" class="st1"/>
  <path d="M1305.6 973.5c1.4 28.1-13.4 56.3-37.3 71.2-11.9 7.4-27 11.6-39.9 4.6-8-4.3-13.1-13-11.8-21.9 2.9-19.7 32.6-18.8 42-3.1 8.8 14.8 3.6 34.3-5.7 48.8-9.3 14.6-22.2 26.7-30.3 41.9-19.3 36.4-4.9 85.3 28.1 110s79.8 26.4 117.4 9.7c19.6-8.7 38.4-23.5 40.9-46.1 1.5-13.7-5-27.6-17.7-33-19.3-8.2-38 7.7-48 24.7-22.4 37.9-21.5 88.5 2.3 125.6s69.3 59.1 113.1 54.6c15.2-1.6 31.3-6.8 39.2-20.4 4.8-8.2 5.1-18.6-.2-26.4-6.3-9.4-16.6-9.8-25.7-7.7-19.9 4.7-36.2 22.2-39.4 42.4s7 41.9 24.5 52.4c33.5 20.1 75.5-2.2 114.5-4.8 42.1-2.8 87.2 23.9 96.4 65.1s-29 88.4-70.5 80.5c-11-2.1-22.2-8.6-25.6-19.2-.9-2.7-1-5.5-.5-8.3 2-11.5 19.8-7.9 17.7 3.6-2.1 11-8.7 21.3-18.4 26.9m-780.8-77c53.1 66.2 149 81.6 210.6 139.9" class="st0"/>
  <path d="M1548.7 456.1h2.5c54.1.9 106.5 34.3 130.5 83 .7 1.5.7 3.2 0 4.6-.8 1.4-2.2 2.4-3.8 2.6-5.5.7-11.2 1-16.9 1-40.3 0-78.6-16.7-115.7-32.8-23.7-10.3-48.1-21-72.5-26.9-25.2 14.6-47.4 35.6-64.2 60.9-28.5 42.7-44.2 96.8-48.1 165.5a4.92 4.92 0 0 1-9 2.5c-23.4-33.9-29.7-72.7-20.6-125.6 8.7-50.5 34.3-107.5 79.8-115.9 8-1.5 16.4-2.2 24.7-2.2 11.5 0 23.3 1.4 36 4.2 24.8-13.7 51.5-20.9 77.5-20.9Zm-113.5 21.7c-7.9 0-15.8.7-23.8 2.1-44.3 8.2-68 67.2-75.7 111.8s-5.9 84.7 19.8 121.9c3.4-59 16.2-118.9 49-168 17.2-25.8 40.7-48.2 67.6-63.4-12.1-2.8-24.4-4.5-36.8-4.5m113.4-16.6c-27 0-53.2 7.9-76.7 21.2 63.2 14.6 123.2 60 188.9 60s10.8-.3 16.3-1c-23.2-47.1-73.8-79.3-126.1-80.2h-2.4" class="st1"/>
  <path d="M1677.4 540.3c-15.5-7.8-24.7-16.1-39.5-25.3-20.6-12.9-35.2-25.1-54.9-29.1-29.9-6.1-31.1-5.5-109.2-3.1" class="st0"/>
  <path d="M1430.6 959.6c73.2 0 145.1 25 202.4 70.3 47.4 37.5 93.6 102.4 81.3 172.1-.3 1.9-1.7 3.4-3.6 3.9a4.8 4.8 0 0 1-5.1-1.5c-108.2-122.4-244.8-199.8-395-224.1-3.7-.6-5.7-2.4-7-4.1h-1.4c-2.1-.1-4-1.7-4.5-3.7-.5-2.1.3-4.3 2.1-5.4 1.2-.7 2.9-1.7 5-1.7s2.5.3 3.8 1.3c3.5.1 7.1.2 10.8.2 18.2 0 36.9-1.8 54.9-3.6 16.2-1.6 33-3.2 49.7-3.6h6.5Zm-125.7 10.7c-.6 0-1.3.3-2.3.9 1.3 0 2.6.2 3.9.2-.4-.7-.8-1.2-1.6-1.2m125.7-5.6h-6.4c-35 .7-69.8 7.2-104.6 7.2s-8.7-.1-13-.3c.8 1.4 1.7 3.5 4.9 4 155.6 25.1 293.6 107.6 398 225.7 11.3-63.9-28.6-127.1-79.5-167.3-56.2-44.5-127.7-69.2-199.3-69.2" class="st1"/>
  <path d="M1303.5 971.3c161.7 6.6 320.7 92 405.8 229.8" class="st0"/>
</svg>
