<svg xmlns="http://www.w3.org/2000/svg" xmlns:xlink="http://www.w3.org/1999/xlink" id="Layer_1" viewBox="0 0 1920 1920">
  <defs>
    <style>
      .st0 {
        stroke-linecap: round;
        stroke-linejoin: round;
        stroke-width: 3.9px;
      }

      .st0, .st1 {
        fill: none;
        stroke: #2e2436;
      }

      .st1 {
        stroke-miterlimit: 10;
        stroke-width: 4.9px;
      }

      .st2 {
        fill: #e4f1de;
      }
    </style>
  </defs>
  <path d="M911.4 1603.2c353.5 0 640.1-286.6 640.1-640.1S1264.9 323 911.4 323 271.3 609.6 271.3 963.1s286.6 640.1 640.1 640.1" class="st2"/>
  <path d="M1273 725.5c1.9 0 5.4.8 7.8 6.3 12.6 29.4 19.8 60.4 21.5 92.3 1.2 22.8-.7 42.2-5.9 59.3-6.8 22.3-20.4 43.1-38.1 58.4-.8.7-1.9 1.1-3 1.1s-.7 0-1.1-.1c-1.4-.4-2.6-1.4-3.1-2.7-17-43.5-30.3-108.5 3.4-171.3 1.4-2.7 2.9-5.2 4.3-7.7 5.1-8.9 9.3-16.1 9.9-25.5-.8-1-1.4-2.3-1.5-3.8a5.6 5.6 0 0 1 4.6-6.2h1.2Zm0 4.5h-.4c-1.6.3-.8 3 .2 3s.4-.1.6-.4c.2 15.1-7.6 24.9-14.8 38.2-28.1 52.3-24.9 112.3-3.2 167.5 17.2-14.9 30.1-34.6 36.7-56.3 5.7-18.6 6.8-38.3 5.7-57.7-1.7-31.2-8.9-62-21.2-90.8-.7-1.6-1.9-3.6-3.6-3.6" class="st1"/>
  <path d="M1256.6 936.2c14.7-12.6 16.2-33.9 16.7-52.9 1.2-47.7-1.5-105.5-.3-153.2" class="st0"/>
  <path d="M930.8 1360.6c1.5 0 2.8.7 3.7 1.9 30.8 43.1 55.7 90.1 74.2 139.7.6 1.7.1 3.7-1.3 4.9-.8.7-1.9 1.1-3 1.1s-1.4-.2-2.1-.5c-29.7-15.7-52.3-44.2-69.1-87.2-.7-1.8-1.4-3.6-2.2-5.5-6.7-16.8-14.4-35.8-4.1-52.3.8-1.3 2.2-2.1 3.7-2.1h.1Zm0 4.5c-10.1 16.2-.3 36 6.6 53.8 13.7 35.1 33.6 67.3 67 84.9a596 596 0 0 0-73.6-138.6" class="st1"/>
  <path d="M672.7 848.7c-1.7 14.2-5.9 28.1-12.4 40.9m37.4-40.9c.4 11.4-2 24.7-6.5 35.2m29-40.8c0 14.2-.9 28.4-2.9 42.5m30.3-48c2.8 11.4 4.1 23.2 3.9 35m15.5-45.2c7 8.6 14.8 20.4 20.1 30.2m-5.9-40.6c11.4 5.9 27.7 12.7 39.1 18.6m-20.9-35 41.2 11.4m-30.2-27.5c13.8 2.9 27.6 2.9 38.9 2.9M817.2 772c-10 24-40.4 51.2-64.3 61.5-23.9 10.2-50.4 13.2-76.4 13-9.1 0-18.5-.4-26.9 3m396.5 418.5c4.5-3.9 8.2-8.6 10.8-13.9 4.6-9.2-2.7-20-12.9-18.7-48.8 6.5-90.6 54.5-86.1 104.3 3.3 36.1 26.3 67 40.4 100.5 10.8 25.6 16.4 53.4 16.4 81.2s-.3 10.7-3.3 15c-4.8 6.8-14.3 7.7-22.5 8.6-62.2 6.7-117.5 46-155.3 95.8s-60.2 109.5-78.2 169.4m-207.9-759.9c4.4 60.1 21.8 115.5 50.6 168.4 9.4 17.1 20 33.8 26.3 52.2 10.1 29.4 10 64.3 32 86.2 16.9 16.8 42.5 21 66.4 22.4 117.2 6.8 235.6-33.3 323.2-111.4m149.6-286.2c79-40.3 139.9-125.4 130.2-213.6-2.3-21.1-9.1-42.8-24.5-57.4-13.5-12.8-32.3-18.9-50.8-21.2-42.3-5.4-91.6 11.7-106.7 51.5-4.4 11.6-5.7 24.4-11 35.6-14.6 30.9-62.2 39.2-86.4 14.9-7.1-7.2-12.3-17.5-9.9-27.3 3-11.9 21.2-19.4 27.8-4.9 1.6 3.5 1.9 7.4 1.3 11.2-5.4 34.1-49.3 45.1-81 34.5-15.6-5.3-30.6-14.6-38.8-29-8.2-14.3-8.1-34 3.2-46.1 5.1-5.5 12.2-9.1 16.7-15.1 7.3-9.7 6.5-23.2 3.6-34.9-6.4-26-25.9-50.7-49.5-60.5-14.2-5.9-25.7-16.9-32.7-30.7q-1.2-2.4-3-4.5c-7.7-9.1-22.3-11.3-32.4-5-4 9.3-8 20-1.4 28.9 4.3 5.8 11.7 8.2 18.8 7.2 12.5-1.9 20.9-12.4 25.2-23.7 8.7-23 2.4-50-12.6-69.4s-37.8-31.9-61.5-38.4c-44.5-12.2-102.7 3.3-115.1 47.8-3.9 14-1.9 29.1 4.3 42.2 8.7 18.3 36.2 7.3 29.9-12.1-2.7-8.2-6.7-15.8-12.4-22.4-15.1-17.6-43.6-24.5-62.5-11-9.5 6.8-15.5 17.5-25.1 24.1-18.5 12.8-45.2 6.1-61.7-9.1-16.6-15.2-25.4-36.8-33.7-57.7-4.7-11.6-9.4-24.1-6.8-36.4s15.9-23.1 27.4-18.2c1.6 16.6-16.9 30.4-33.4 27.9s-29.2-17.2-33.9-33.3c-13.3-45 27.6-90.4 72.5-104 22.6-6.9 47.9-9.1 65.9-24.4 2.5 17.4-11.7 24-27.5 31.6-49.1 23.6-68 82.8-80.8 135.7-21.2 87.5-39.5 180.9-10.4 266.1 6.9 20.1 16.4 39.5 20.6 60.4 14 69.6-32.1 135.2-55.7 202.2-5.1 14.6-8.6 32.6 1.7 44.2 8.2 9.2 21.9 10.6 34.2 11.3 23.8 1.3 47.7 2.7 71.4 4s49.6-4.8 49-25.7" class="st0"/>
  <path d="M1449.6 685.4c.5 0 .9 0 1.4.2 1.7.5 2.8 2 3.1 3.7 9.6 79.5-4.3 145.4-41.3 195.9-38 51.8-102.8 84-169 84s-10.8-.2-16.1-.6a4.48 4.48 0 0 1-2.3-8.1 562.5 562.5 0 0 0 164.3-183.6c3.6-6.5 7.2-13.2 10.6-19.6 13-24.5 26.4-49.8 46-70.4.9-.9 2-1.4 3.3-1.4Zm0 4.5c-24.3 25.5-38.8 58.4-55.9 89.1-40.5 72.9-97.6 136.6-165.6 185.1 5.2.4 10.5.6 15.7.6 63.8 0 127.6-30.8 165.3-82.2 40.8-55.6 48.7-124.3 40.5-192.7" class="st1"/>
  <path d="M975.3 262c0 10.3-11.4 18.2-21.6 16.8-10.3-1.4-18.5-9.6-22.9-19-1.2-2.6-2.2-5.3-2.2-8.2 0-5.5 3.5-10.4 7.8-13.9 9-7.3 22.7-9.4 32.6-3.2 9.8 6.2 13.4 21.4 5.9 30.3M1247 555.3c-66.6-115-153.4-91.7-230-200.3m209.7 609.7c19.3-12.4 38.6-24.9 57.9-37.3 34-22 68.5-44.2 96.1-73.8 40-42.9 67-104.5 68.9-163.1" class="st0"/>
  <path d="M947.4 109.8c12.7 0 26.2 7.5 40.2 22.4 5.1 5.4 10.7 11.8 13.3 19.9 5.5 17.1-3.9 34.1-13.1 48.6-11.4 18-25.6 40.3-52.5 40.3h-2.4c-26.5-1.3-40.9-50.9-47.2-80.4-1.8-8.7-3.4-21.1 4.5-29.5 5.2-5.6 12.6-7.1 19.1-8.5 2.7-.6 5.3-1.1 7.7-1.9 3.2-1 6.2-2.6 9.4-4.3 4.4-2.3 8.9-4.7 14.1-5.8 2.3-.5 4.6-.7 6.9-.7Zm0 4.5c-2 0-3.9.2-5.9.6-8.2 1.8-15.1 7.3-23 10-8.5 2.8-18.8 2.6-24.9 9.2-6.1 6.5-5.2 16.8-3.3 25.5 4.9 23.3 18.7 75.7 43 76.9h2.2c24.3 0 37.3-20.3 48.7-38.3 8.6-13.6 17.6-29.6 12.7-44.9-2.3-7-7.2-12.8-12.3-18.2-10-10.6-23-21-37-21" class="st1"/>
  <path d="M1031.6 162.5c7.7 0 14.3 2.6 18.9 7.6 6.2 6.7 7.3 15.4 8.3 23.7.4 3.2.8 6.3 1.4 9.2.8 3.4 2 6.7 3.2 10.2 1.7 4.7 3.5 9.6 4.2 14.9 2.1 15.9-6.5 32.8-21.5 41.9-8.5 5.2-18.8 7.9-29.9 7.9s-11.2-.7-16.7-2c-1.7-.4-3.3-.9-5-1.3-4.6-1.3-8.9-2.5-13-2.5s-2.5.1-3.7.4h-.9c-1.4 0-2.7-.6-3.6-1.8a4.4 4.4 0 0 1-.4-4.8c4.5-8.9-1.8-22.6-10.4-29a4.5 4.5 0 0 1-1.7-4.7c6.3-26 23.1-48.7 46.1-62.4 8-4.8 17-7.5 24.8-7.5Zm0 4.5c-7.6 0-15.8 2.9-22.5 6.8a97 97 0 0 0-44 59.6c10.1 7.4 17.5 23.5 11.8 34.6 1.5-.3 3.1-.5 4.6-.5 6.4 0 12.8 2.4 19.1 3.9 5.1 1.2 10.4 1.9 15.6 1.9 9.7 0 19.3-2.2 27.5-7.3 12.7-7.7 21.3-22.7 19.4-37.5-1.1-8.5-5.5-16.3-7.4-24.7-2.4-10.6-1.2-22.9-8.6-30.8-4.1-4.4-9.7-6.2-15.6-6.2" class="st1"/>
  <path d="M979 258.8c.3 0 .7 0 1 .1a189 189 0 0 1 55.2 22c4.1 2.4 8.7 5.4 12.1 9.9 10.1 13.2 4.4 32.4-6.4 44.6-7.2 8-15.7 13.9-25.4 20.2-7.1 4.7-13.6 8.6-21.5 9.6-1.2.1-2.4.2-3.6.2-11.4 0-23.3-6.8-32.5-18.7-15.2-19.7-20.2-46.7-13.2-70.5.6-1.9 2.3-3.2 4.3-3.2h.7c.6 0 1.3.1 2 .1 8.1 0 17.8-6.5 23.9-12.9.9-.9 2-1.4 3.3-1.4Zm0 4.5c-6.6 7-17.5 14.3-27.2 14.3s-1.8 0-2.6-.2c-6.6 22.4-1.9 47.9 12.4 66.5 7.1 9.2 17.6 17 28.9 17s2 0 3-.2c7.2-.9 13.5-4.9 19.6-8.9 8.7-5.7 17.5-11.7 24.5-19.5 9.5-10.6 14.8-27.6 6.2-38.9-2.8-3.7-6.9-6.3-10.9-8.7-16.7-9.9-34.9-17.2-53.9-21.5M865 171.2c1.9 0 3.8.2 5.6.6 9 1.9 15.7 8 22.3 14.6l.2.2c34.3 34.3 47.7 56.3 42.4 69.2-2.8 6.8-10.4 10.3-22.5 10.3s-3.6 0-5.5-.2h-2.1c-9.6 0-18.7 4.5-28.3 9.2-8.9 4.4-18 8.9-28.2 10.1-1.4.2-2.8.3-4.1.3-4.1 0-7.6-.8-10.6-2.5-7-3.9-9.8-11.9-11.7-17.2l-7-19.5-1.4-4c-2.4-6.7-5.1-14.2-4.4-22.3 1.2-14.4 12.3-25 24.2-34.3 9.5-7.4 19.8-14.3 31.3-14.3Zm0 4.5c-10.3 0-20.1 6.8-28.5 13.3-10.4 8.1-21.4 18-22.5 31.1-.6 7 1.8 13.8 4.2 20.4 2.8 7.8 5.6 15.7 8.4 23.5 2 5.7 4.5 11.8 9.7 14.8 2.5 1.4 5.5 1.9 8.4 1.9s2.4 0 3.6-.2c20.1-2.4 37.1-19.4 57-19.4h2.4c1.8.1 3.6.2 5.2.2 48.9 0-9.7-58.4-23.2-72-5.8-5.8-12-11.7-20-13.4-1.6-.3-3.1-.5-4.7-.5" class="st1"/>
  <path d="M923.7 253.9c1.4 0 2.8 0 4.2.2 1 0 2 .6 2.8 1.3 3.2 3.3 7 7.4 10.6 11.4 3.6 3.9 7.3 8 10.4 11.1 1 1 1.5 2.4 1.3 3.8-1.3 9.3-.3 18.6.7 28.5.5 4.9 1 9.9 1.3 14.9.6 13.8-1.4 32.7-14.5 44.4-6.9 6.1-15.9 9.3-26.1 9.3s-19.1-2.8-27.2-7.9c-16.6-10.4-26.4-27.8-33-41.7-2.6-5.4-5.3-11.7-5.3-18.6.2-15.8 15-27 22.9-32.9 15.8-11.9 32.9-23.6 52-23.6Zm0 4.5c-18.1 0-34.6 11.6-49.3 22.7-10 7.5-21 16.9-21.1 29.4 0 5.8 2.3 11.3 4.8 16.6 7.4 15.5 16.9 30.7 31.4 39.9 7.3 4.6 16.2 7.2 24.8 7.2s16.8-2.5 23.1-8.2c11-9.8 13.7-26 13-40.8s-3.9-29.5-1.9-44.2c-6.3-6.4-14.6-16.1-21-22.4-1.3-.1-2.5-.2-3.8-.2" class="st1"/>
  <path d="M1248.9 555.9c22.1-36.3 43.2-71 36.4-113m-36.4 113c-4-73.8-38.9-138.1-94.2-187m-11 133.4c-18.9 37.1-76.7 48.9-117.8 42m216.6 2.9c4.4 6.3 3.8 15.2.1 22-3.6 6.8-9.8 11.9-16.1 16.3-25.4 18-55.8 28.7-86.9 30.6m167.6 253.4c9.5-15.6 17.6-48.9 18.3-67.1 2.6-74.6-23.6-146.7-60-210.7-6.7-11.7-16.5-37.1-27.8-44.6-7.4-4.9-30.7-4.9-42.2-10.6-30.5-15.4-54.9-40.7-86.6-54.1-18.2-7.7-37.9-11.1-57.5-14.4" class="st0"/>
  <path d="M1315.2 337.5c.5 0 1 0 1.5.2 1.4.5 2.4 1.6 2.8 3l5.4 17.9 3.2 10.6c4.2 13.9 8.5 28.3 9.2 43.3 1.7 36.5-20.4 72.9-53.6 88.4-.6.3-1.3.4-1.9.4s-1.3-.1-1.9-.4c-7.9-3.6-34.2-17-39.6-38.6-4.1-16.2-2.2-34.4 5.4-51.3 11.5-25.8 32.8-49 67-72.8.8-.5 1.7-.8 2.6-.8Zm0 4.5c-26.5 18.6-52.2 41.5-65.4 71-6.8 15.1-9.2 32.4-5.1 48.4 4 16 22 28.8 37.1 35.6 31.6-14.8 52.6-49.5 51-84.2-.7-14.4-4.8-28.4-9-42.3-2.9-9.5-5.7-19-8.6-28.6M1132.1 293.1Zm0-9c.8 0 1.7.2 2.4.7 23.8 15 41.1 30.8 52.8 48 14.8 22 20.7 47.4 16 69.8-.7 3.6-2 7.7-5.3 10.6-7.3 6.5-17.7 10.1-29.2 10.1s-19.9-2.8-27.5-7.9c-14.6-9.9-25.1-26.8-28.9-46.3-4.4-23 .8-47.2 14.3-66.4 2.3-3.3 2.9-8.8 1.3-12.2-.9-1.8-.4-4 1.1-5.3.8-.7 1.9-1.1 3-1.1Zm0 4.5c2.3 5 1.5 12.2-1.7 16.7a83.3 83.3 0 0 0-13.5 63c3.3 17.2 12.5 33.6 27 43.4 6.9 4.7 16 7.2 24.9 7.2s19.4-2.9 26.2-9c2.3-2 3.2-5.2 3.9-8.2 4.8-22.8-2.3-47-15.3-66.3-13.1-19.3-31.7-34.3-51.5-46.7M993.3 388.9c.3 0 .7 0 1 .1 19.9 4.6 44.7 10.4 64.3 24.7 19.9 14.5 33.4 37.8 36.3 62.2a4.3 4.3 0 0 1-3.3 4.8c-6.4 1.8-13.5 5.4-20.9 9.2-11.9 6.1-24.2 12.4-36.2 12.4s-2.8 0-4.1-.3c-17.2-2.3-32.5-16.2-39.1-35.6-5.8-17-4.7-35.1-2.7-52.2.4-3.3.3-6.4.1-9.6-.1-3.7-.3-7.6.3-11.9.2-1.2.9-2.4 1.9-3.1.8-.5 1.6-.8 2.5-.8Zm0 4.5c-1.1 7.5.4 13.9-.4 21.4-2 16.8-2.9 34.2 2.5 50.3 5.5 16 18.7 30.4 35.5 32.6 1.2.2 2.4.2 3.5.2 18.1 0 38.7-16.7 56-21.5-2.7-23.3-15.5-45.2-34.5-59.1-18.2-13.3-40.7-18.8-62.6-23.9M961 506.5c1.6 0 3 .6 4.2 1.1 10.2 4.7 21.7 4.8 33.9 4.9 4.4 0 8.9 0 13.3.3 18.4 1.1 40.7 12.7 46.4 30.2.4 1.1.3 2.3-.2 3.4-8.7 18-26.7 30-44.6 30s-13.9-1.9-20.1-5.6c-15.9-9.5-27.9-27.1-36.7-53.9-.9-.7-1.6-1.7-2-2.9-.8-2.5 0-5 2.1-6.4 1.1-.7 2.3-1.1 3.6-1.1Zm0 4.5c-.4 0-.8 0-1.1.3-.8.6-.3 2.2.5 2.2s.3 0 .4-.2c6.5 20.6 16.9 42.5 35.4 53.6a34 34 0 0 0 17.8 4.9c16.4 0 32.7-11.3 40.6-27.5-5.1-15.8-25.9-26-42.4-27s-33.8 1.3-48.8-5.7c-.7-.3-1.6-.7-2.3-.7M1145.4 591.4h4.1c5.7.2 11.6.8 16.6 4.3 5.7 4 9 12.6 4.8 19.1-1.7 2.6-3.4 5.5-5 8.2-7 11.9-14.2 24.2-27.6 24.2s-4.4-.3-6.7-1c-17.7-5.2-29.8-21.4-32.4-43.3a4.6 4.6 0 0 1 3.1-4.9c14-4.4 28.5-6.6 43.1-6.6Zm0 4.6c-14.1 0-28.3 2.2-41.7 6.4 2.2 18.1 11.8 34.3 29.2 39.5 1.9.6 3.8.8 5.5.8 13.5 0 20-16.8 28.8-30.3 2.7-4.1.4-10.1-3.6-12.9s-9.2-3.3-14.1-3.5h-4M817.4 1420.5Zm0-9c.7 0 1.4.2 2.1.5l73.4 38.5 57.9 30.4c15.5 8.1 31.5 16.5 45.7 27.6 13.3 10.4 19.2 21.5 16.9 32.3a4.4 4.4 0 0 1-4.4 3.5c-.7 0-1.1-.1-1.7-.3-16.2-6.6-33-10.9-49.3-15.1-21.2-5.5-43.2-11.2-63.9-21.8-43.1-22.1-71.9-54-81.1-89.9-.4-1.7.2-3.5 1.6-4.6.8-.6 1.8-1 2.8-1Zm0 4.5c10.1 39.4 42.6 68.5 78.8 87s75.2 21.5 112.9 36.8c2.3-10.9-6.5-20.9-15.3-27.8-13.9-10.8-29.5-19-45.1-27.2-43.8-23-87.5-45.9-131.3-68.9" class="st1"/>
  <path d="M1280.4 972.1c1.2 25.1-12 50.5-33.4 63.8-10.7 6.6-24.2 10.4-35.8 4.1-7.1-3.9-11.8-11.6-10.6-19.7 2.6-17.7 29.2-16.9 37.6-2.8 7.9 13.3 3.2 30.7-5.1 43.8s-19.9 23.9-27.1 37.6c-17.3 32.6-4.4 76.4 25.2 98.6 29.5 22.2 71.5 23.7 105.3 8.7 17.6-7.8 34.4-21.1 36.6-41.3 1.4-12.3-4.5-24.7-15.9-29.6-17.3-7.4-34.1 6.9-43 22.1-20.1 34-19.2 79.3 2.1 112.6s62.1 52.9 101.4 48.9c13.6-1.4 28.1-6.1 35.1-18.3 4.3-7.3 4.5-16.6-.2-23.7-5.7-8.4-14.9-8.8-23.1-6.9-17.9 4.2-32.4 19.9-35.3 38-2.8 18.1 6.3 37.6 22 47 30 18 67.7-1.9 102.6-4.3 37.8-2.5 78.2 21.4 86.4 58.3 8.3 36.9-26 79.2-63.2 72.1-9.9-1.9-19.9-7.7-22.9-17.2-.8-2.4-.9-5-.4-7.5 1.8-10.3 17.8-7.1 15.9 3.2-1.8 9.9-7.8 19.1-16.5 24.1m-700-68.7c47.6 59.3 133.5 73.2 188.8 125.4" class="st0"/>
  <path d="M1498.3 508.3h2.2c48.5.8 95.5 30.7 117 74.4.6 1.3.6 2.9 0 4.1-.7 1.3-2 2.1-3.4 2.3-5 .6-10.1.9-15.1.9-36.1 0-70.5-15-103.7-29.4-21.2-9.2-43.2-18.8-65-24.1-22.6 13.1-42.5 31.9-57.6 54.6-25.5 38.3-39.6 86.8-43.1 148.3-.1 1.9-1.4 3.5-3.3 4.1-.4.1-.8.2-1.2.2-1.4 0-2.8-.7-3.7-1.9-21-30.4-26.6-65.2-18.4-112.6 7.8-45.3 30.7-96.4 71.5-103.9 7.2-1.3 14.7-2 22.2-2 10.3 0 20.9 1.2 32.3 3.7 22.2-12.2 46.2-18.7 69.4-18.7Zm-101.7 19.4c-7.1 0-14.2.6-21.4 1.9-39.7 7.3-61 60.3-67.9 100.2s-5.3 76 17.7 109.3c3-52.8 14.6-106.6 43.9-150.6 15.4-23.2 36.5-43.2 60.6-56.9-10.9-2.5-21.8-4-33-4m101.8-14.8c-24.2 0-47.7 7.1-68.8 19 56.6 13.1 110.5 53.8 169.3 53.8s9.7-.3 14.6-.9c-20.8-42.2-66.1-71.1-113-71.9h-2.2" class="st1"/>
  <path d="M1613.7 583.8c-13.9-7-22.2-14.5-35.4-22.7-18.5-11.6-31.6-22.5-49.2-26.1-26.8-5.5-27.9-5-97.9-2.8" class="st0"/>
  <path d="M1392.5 959.6c65.7 0 130.1 22.4 181.5 63 42.5 33.6 83.9 91.8 72.9 154.3-.3 1.7-1.5 3.1-3.2 3.5-.4.1-.8.2-1.2.2-1.3 0-2.5-.5-3.4-1.5-97-109.7-219.5-179.1-354.1-200.9-3.3-.5-5.1-2.2-6.2-3.7h-1.3c-1.9-.1-3.6-1.5-4-3.4-.5-1.9.3-3.8 1.9-4.9 1-.7 2.6-1.6 4.5-1.6s2.2.2 3.4 1.1c3.1.1 6.4.2 9.7.2 16.3 0 33-1.6 49.2-3.2 14.5-1.4 29.6-2.9 44.5-3.2h5.9Zm-112.7 9.6c-.5 0-1.2.2-2.1.8 1.2 0 2.4.2 3.5.2-.4-.6-.8-1.1-1.4-1.1m112.7-5h-5.8c-31.3.7-62.6 6.4-93.8 6.4s-7.8 0-11.7-.3c.7 1.2 1.5 3.1 4.4 3.6 139.5 22.5 263.2 96.5 356.8 202.3 10.1-57.3-25.6-113.9-71.2-150-50.4-39.9-114.4-62.1-178.7-62.1" class="st1"/>
  <path d="M1278.6 970.1c145 6 287.5 82.4 363.8 206" class="st0"/>
</svg>
