<svg xmlns="http://www.w3.org/2000/svg" viewBox="0 0 309.78 319.21">
	<path fill="#2e2436" d="M220.66 0c-65.22 25.03-88.59 65.79-104.55 86.08-5.95 7.56-10.87 12.28-16.54 12.28h-.02s28.16 3.28 78.91-34.36q2.51-5.42 5.41-10.93A274 274 0 0 1 220.66 0"/>
	<path fill="#c93d4a" d="M170.8 151.08c-14.93-16.52-19.08-19.26-30.73-30.88-.28-.27.07-.71.4-.51 6.69 4.09 16.98 7.9 25.47 1.71 10.18-7.42 22.69-7.86 31.45-.57 20.27-29.76 59.91-61.24 112.4-87.34-54.79.85-98.07 15.37-131.33 30.52v-.02c-10.46 4.25-60.23 34.37-78.9 34.37-3.83-1.3-6.17-5.34-7.23-12.38-4.9-30.09-27.93-44.17-53.08-36.91C25.82 52.91 15.16 48 .02 30.72c12.36 21.23 16.09 49.24 19.85 76.5 3.75 27.26 7.54 53.77 20.02 72.02C54.81 201 75.49 217 86.58 205.06c11.73-13.01-23.88-27.1-35.39-53.34-11.72-20.49 5.12-40.97 16.63-21.12 11.3 19.84 29.63 29.23 81.23 59.1 46.26 26.67 54.58 91.75 40.51 129.52 40.45-63.66 15.23-114.63 6.86-132.02-4.31-9.1-16.35-25.87-25.6-36.11ZM58.84 73.62a5.56 5.56 0 0 1-7.25 2.56 5.7 5.7 0 0 1-2.56-7.47a5.4 5.4 0 0 1 7.25-2.56 5.7 5.7 0 0 1 2.56 7.47"/>
	<path fill="#c93d4a" d="M180.77 128.66a3.67 3.67 0 0 0-4.12 3.27 3.9 3.9 0 0 0 3.31 4.27 3.8 3.8 0 0 0 4.12-3.27 3.9 3.9 0 0 0-3.31-4.27"/>
</svg>
